 http://desibbrg.org/images/66952052392581364616.gif 
http://desibbrg.org/images/25509799057743148548.jpg 
http://desibbrg.org/images/24946122515917890916.jpg 
http://desibbrg.org/images/38224452691738660513.jpg 
http://desibbrg.org/images/36325371675621391601.jpg 
http://desibbrg.org/images/15510250701316767145.jpg

Media Info - 
Video
ID : 0
Format : MPEG-4 Visual
Format profile : Advanced Simple@L5
Format settings, BVOP : 2
Format settings, QPel : Yes
Format settings, GMC : No warppoints
Format settings, Matrix : Default (H.263)
Codec ID : XVID
Codec ID/Hint : XviD
Duration : 2h 39mn
Bit rate : 525 Kbps
Width : 640 pixels
Height : 272 pixels
Display aspect ratio : 2.35:1
Frame rate : 23.976 fps
Color space : YUV
Chroma subsampling : 4:2:0
Bit depth : 8 bits
Scan type : Progressive
Compression mode : Lossy
Bits/(Pixel*Frame) : 0.126
Stream size : 599 MiB (86%)
Writing library : XviD 1.2.1 (UTC 2008-12-04)

Audio
ID : 1
Format : MPEG Audio
Format version : Version 1
Format profile : Layer 3
Mode : Joint stereo
Mode extension : MS Stereo
Codec ID : 55
Codec ID/Hint : MP3
Duration : 2h 39mn
Bit rate mode : Constant
Bit rate : 80.0 Kbps
Channel(s) : 2 channels
Sampling rate : 32.0 KHz
Compression mode : Lossy
Stream size : 91.4 MiB (13%)
Alignment : Aligned on interleaves
Interleave, duration : 167 ms (4.00 video frames)
Interleave, preload duration : 216 ms
Title : VTS_02_1 T81 2_0ch 224Kbps DELAY 0ms
Writing library : LAME3.99r
Encoding settings : -m j -V 4 -q 2 -lowpass 13.5 -b 80

Ripper : Master Mind

Seeding 24x7... Extreme Seeding...


Enjoy!
